<svg xmlns="http://www.w3.org/2000/svg" width="24" height="32"><path d="M13.206 23.547a20.84 20.84 0 0 1-1.569 6.679l.051-.138c-.277.629-.78 1.23-1.013 1.911h-.101v-.503c.19-.296.097-.7.203-1.107.501-1.936.539-4.52-.304-6.138-1.44-2.765-4.324-1.835-7.192-3.019a5.564 5.564 0 0 1-2.519-2.386l-.014-.029-.608-1.711a6.458 6.458 0 0 1-.124-1.278c0-.842.157-1.648.444-2.389l-.015.045C1.826 9.87 5.277 8.28 9.46 10.264v-.302c-.359-.489-.242-1.215-.405-1.911-.438-1.875-.775-8.03 1.317-8.05.568.412 1.658.393 1.722 1.308a.738.738 0 0 0-.202.608v-.004h.101v-.102c.436-.458.556-1.498 1.317-1.61.608.542 1.637.65 1.822 1.61a7.69 7.69 0 0 0-1.204 2.562l-.012.054h.203c.635-.834 3.25-3.223 4.457-3.019.39.547.702 1.183.901 1.867l.011.044c-.638.227-.931.844-1.418 1.208-1.778 1.333-3.214 3.277-4.356 5.233h.304c.697-.542 3.544-.805 4.761-.503 3.21.796 4.112 1.898 4.862 5.132a5.966 5.966 0 0 1 .098 2.144l.003-.031c-.97 4.196-3.018 6.315-7.293 7.244-1.143.25-2.282-.147-3.242-.2z"/></svg>